<svg xmlns="http://www.w3.org/2000/svg" width="26.03" height="26.029" viewBox="0 0 26.03 26.029"><defs><style>.a{fill:#fff;}</style></defs><g transform="translate(-344.788 -6739.835)"><path class="a" d="M13.015,26.029c-3.54,0-4-.015-5.366-.079a9.606,9.606,0,0,1-3.16-.6,6.368,6.368,0,0,1-2.3-1.5,6.362,6.362,0,0,1-1.5-2.306,9.644,9.644,0,0,1-.606-3.158C.015,17,0,16.541,0,13.015S.015,9.028.078,7.649a9.662,9.662,0,0,1,.606-3.16,6.368,6.368,0,0,1,1.5-2.3,6.368,6.368,0,0,1,2.3-1.5A9.663,9.663,0,0,1,7.649.078C9.028.015,9.488,0,13.015,0S17,.015,18.381.078a9.644,9.644,0,0,1,3.158.606,6.362,6.362,0,0,1,2.306,1.5,6.368,6.368,0,0,1,1.5,2.3,9.606,9.606,0,0,1,.6,3.16c.064,1.368.079,1.826.079,5.366s-.015,4-.079,5.366a9.574,9.574,0,0,1-.6,3.158,6.647,6.647,0,0,1-3.807,3.807,9.574,9.574,0,0,1-3.158.6C17.013,26.014,16.555,26.029,13.015,26.029Zm0-23.684c-3.469,0-3.881.013-5.259.075a7.245,7.245,0,0,0-2.417.448,4.052,4.052,0,0,0-1.5.974,4.052,4.052,0,0,0-.974,1.5A7.245,7.245,0,0,0,2.42,7.755c-.062,1.378-.075,1.79-.075,5.259s.013,3.88.075,5.259a7.276,7.276,0,0,0,.448,2.416,4.039,4.039,0,0,0,.974,1.5,4.027,4.027,0,0,0,1.5.974,7.191,7.191,0,0,0,2.417.448c1.366.063,1.777.076,5.259.076s3.893-.013,5.259-.076a7.163,7.163,0,0,0,2.416-.448,4.311,4.311,0,0,0,2.47-2.47,7.163,7.163,0,0,0,.448-2.416c.063-1.368.076-1.779.076-5.259s-.013-3.893-.076-5.259a7.191,7.191,0,0,0-.448-2.417,4.027,4.027,0,0,0-.974-1.5,4.039,4.039,0,0,0-1.5-.974,7.276,7.276,0,0,0-2.416-.448C16.895,2.359,16.482,2.346,13.015,2.346Zm0,17.351A6.683,6.683,0,1,1,19.7,13.015,6.691,6.691,0,0,1,13.015,19.7Zm0-11.02a4.338,4.338,0,1,0,4.338,4.338A4.343,4.343,0,0,0,13.015,8.676Z" transform="translate(344.788 6739.835)"/><path class="a" d="M2.708,1.354A1.354,1.354,0,1,1,1.354,0,1.354,1.354,0,0,1,2.708,1.354" transform="translate(362.484 6743.906)"/></g></svg>