<svg xmlns="http://www.w3.org/2000/svg" width="26.03" height="26.029" viewBox="0 0 26.03 26.029"><defs><style>.a{fill:#fff;}</style></defs><path class="a" d="M24.1,26.029H1.92A1.9,1.9,0,0,1,0,24.151V1.877A1.9,1.9,0,0,1,1.92,0H24.1A1.9,1.9,0,0,1,26.03,1.877V24.151A1.905,1.905,0,0,1,24.1,26.029ZM10.144,9.758V22.18H14V16.035c0-1.578.275-3.19,2.313-3.19,2.007,0,2.007,1.9,2.007,3.293V22.18H22.18V15.367c0-3.074-.561-5.918-4.631-5.918A4.083,4.083,0,0,0,13.9,11.455h-.054v-1.7Zm-6.289,0V22.18H7.719V9.758ZM5.791,3.583A2.239,2.239,0,1,0,8.028,5.821,2.243,2.243,0,0,0,5.791,3.583Z"/></svg>