<svg xmlns="http://www.w3.org/2000/svg" width="26.029" height="21.165" viewBox="0 0 26.029 21.165"><defs><style>.a{fill:#fff;}</style></defs><path class="a" d="M8.176,21.165a15.1,15.1,0,0,0,15.2-15.2c0-.229,0-.458-.01-.687A10.881,10.881,0,0,0,26.029,2.51a10.825,10.825,0,0,1-3.073.844A5.374,5.374,0,0,0,25.311.4a10.624,10.624,0,0,1-3.4,1.292,5.342,5.342,0,0,0-9.239,3.656,5.9,5.9,0,0,0,.135,1.219A15.167,15.167,0,0,1,1.8.979,5.362,5.362,0,0,0,3.458,8.114a5.4,5.4,0,0,1-2.416-.667V7.52a5.352,5.352,0,0,0,4.281,5.239,5.372,5.372,0,0,1-2.406.094,5.341,5.341,0,0,0,4.989,3.708,10.713,10.713,0,0,1-6.635,2.291A10.278,10.278,0,0,1,0,18.78a15.193,15.193,0,0,0,8.176,2.385"/></svg>